<svg width="56" height="55" viewBox="0 0 56 55" fill="none" xmlns="http://www.w3.org/2000/svg">
<path d="M52 31.4286H32V51.0714C32 52.1133 31.5786 53.1126 30.8284 53.8493C30.0783 54.5861 29.0609 55 28 55C26.9391 55 25.9217 54.5861 25.1716 53.8493C24.4214 53.1126 24 52.1133 24 51.0714V31.4286H4C2.93913 31.4286 1.92172 31.0147 1.17157 30.2779C0.421428 29.5412 0 28.5419 0 27.5C0 26.4581 0.421428 25.4588 1.17157 24.7221C1.92172 23.9853 2.93913 23.5714 4 23.5714H24V3.92857C24 2.88665 24.4214 1.8874 25.1716 1.15065C25.9217 0.413901 26.9391 0 28 0C29.0609 0 30.0783 0.413901 30.8284 1.15065C31.5786 1.8874 32 2.88665 32 3.92857V23.5714H52C53.0609 23.5714 54.0783 23.9853 54.8284 24.7221C55.5786 25.4588 56 26.4581 56 27.5C56 28.5419 55.5786 29.5412 54.8284 30.2779C54.0783 31.0147 53.0609 31.4286 52 31.4286Z" fill="#4F6688"/>
</svg>
