<svg width="15" height="17" viewBox="0 0 15 17" fill="none" xmlns="http://www.w3.org/2000/svg">
<path d="M9.4 4.93161e-08C9.7498 9.25308e-05 10.0907 0.112443 10.3744 0.321137C10.6581 0.52983 10.8703 0.824288 10.9808 1.1628L11.4333 2.55H14.1667C14.3877 2.55 14.5996 2.63955 14.7559 2.79896C14.9122 2.95837 15 3.17457 15 3.4C15 3.62543 14.9122 3.84163 14.7559 4.00104C14.5996 4.16045 14.3877 4.25 14.1667 4.25L14.1642 4.31035L13.4417 14.6319C13.3966 15.275 13.1143 15.8768 12.6517 16.3162C12.1891 16.7556 11.5805 16.9999 10.9483 17H4.05167C3.41955 16.9999 2.81092 16.7556 2.34831 16.3162C1.88569 15.8768 1.60342 15.275 1.55833 14.6319L0.835833 4.3095C0.834325 4.2897 0.833492 4.26986 0.833333 4.25C0.61232 4.25 0.400358 4.16045 0.244078 4.00104C0.0877973 3.84163 0 3.62543 0 3.4C0 3.17457 0.0877973 2.95837 0.244078 2.79896C0.400358 2.63955 0.61232 2.55 0.833333 2.55H3.56667L4.01917 1.1628C4.12975 0.82415 4.34203 0.529594 4.62592 0.320888C4.9098 0.112182 5.25089 -8.5902e-05 5.60083 4.93161e-08H9.4ZM12.4975 4.25H2.5025L3.22083 14.5103C3.23579 14.7247 3.32981 14.9254 3.48397 15.0719C3.63812 15.2184 3.84096 15.2999 4.05167 15.3H10.9483C11.159 15.2999 11.3619 15.2184 11.516 15.0719C11.6702 14.9254 11.7642 14.7247 11.7792 14.5103L12.4975 4.25ZM5.83333 6.8C6.03744 6.80003 6.23445 6.87646 6.38698 7.01481C6.53951 7.15315 6.63695 7.34379 6.66083 7.55055L6.66667 7.65V11.9C6.66643 12.1166 6.5851 12.325 6.43929 12.4826C6.29349 12.6401 6.09421 12.7349 5.88217 12.7476C5.67014 12.7603 5.46135 12.6899 5.29847 12.5509C5.1356 12.4118 5.03092 12.2146 5.00583 11.9995L5 11.9V7.65C5 7.42457 5.0878 7.20837 5.24408 7.04896C5.40036 6.88955 5.61232 6.8 5.83333 6.8ZM9.16667 6.8C9.38768 6.8 9.59964 6.88955 9.75592 7.04896C9.9122 7.20837 10 7.42457 10 7.65V11.9C10 12.1254 9.9122 12.3416 9.75592 12.501C9.59964 12.6604 9.38768 12.75 9.16667 12.75C8.94565 12.75 8.73369 12.6604 8.57741 12.501C8.42113 12.3416 8.33333 12.1254 8.33333 11.9V7.65C8.33333 7.42457 8.42113 7.20837 8.57741 7.04896C8.73369 6.88955 8.94565 6.8 9.16667 6.8ZM9.4 1.7H5.6L5.3225 2.55H9.6775L9.4 1.7Z" fill="#4F6688"/>
</svg>
