<svg width="19" height="19" viewBox="0 0 19 19" fill="none" xmlns="http://www.w3.org/2000/svg">
<path d="M10.5938 9.9375L9.5875 8.625C9.5 8.52292 9.38333 8.47188 9.2375 8.47188C9.09167 8.47188 8.975 8.52292 8.8875 8.625L7.42188 10.55C7.30521 10.6958 7.28683 10.849 7.36675 11.0094C7.44667 11.1698 7.58171 11.25 7.77188 11.25H14.7281C14.9177 11.25 15.0525 11.1698 15.1324 11.0094C15.2123 10.849 15.1942 10.6958 15.0781 10.55L12.9563 7.77188C12.8688 7.65521 12.7521 7.59688 12.6063 7.59688C12.4604 7.59688 12.3438 7.65521 12.2563 7.77188L10.5938 9.9375ZM6 14.75C5.51875 14.75 5.10663 14.5785 4.76363 14.2355C4.42063 13.8925 4.24942 13.4807 4.25 13V2.5C4.25 2.01875 4.4215 1.60663 4.7645 1.26363C5.1075 0.920626 5.51933 0.749418 6 0.750001H16.5C16.9813 0.750001 17.3934 0.921502 17.7364 1.2645C18.0794 1.6075 18.2506 2.01933 18.25 2.5V13C18.25 13.4813 18.0785 13.8934 17.7355 14.2364C17.3925 14.5794 16.9807 14.7506 16.5 14.75H6ZM6 13H16.5V2.5H6V13ZM2.5 18.25C2.01875 18.25 1.60663 18.0785 1.26363 17.7355C0.920626 17.3925 0.749418 16.9807 0.750001 16.5V5.125C0.750001 4.87708 0.834002 4.66913 1.002 4.50113C1.17 4.33313 1.37767 4.24942 1.625 4.25C1.87292 4.25 2.08088 4.334 2.24888 4.502C2.41688 4.67 2.50058 4.87767 2.5 5.125V16.5H13.875C14.1229 16.5 14.3309 16.584 14.4989 16.752C14.6669 16.92 14.7506 17.1277 14.75 17.375C14.75 17.6229 14.666 17.8309 14.498 17.9989C14.33 18.1669 14.1223 18.2506 13.875 18.25H2.5Z" fill="#4F6688"/>
</svg>
