<svg width="32" height="32" viewBox="0 0 32 32" fill="none" xmlns="http://www.w3.org/2000/svg">
<rect width="32" height="32" rx="6" fill="#F7F7F7"/>
<path d="M16 18.75C17.5188 18.75 18.75 17.5188 18.75 16C18.75 14.4812 17.5188 13.25 16 13.25C14.4812 13.25 13.25 14.4812 13.25 16C13.25 17.5188 14.4812 18.75 16 18.75Z" stroke="#4F6688" stroke-width="1.5"/>
<path d="M17.6178 6.97266C17.2814 6.83333 16.8543 6.83333 15.9999 6.83333C15.1456 6.83333 14.7184 6.83333 14.382 6.97266C14.1594 7.0648 13.9572 7.1999 13.7868 7.37024C13.6165 7.54058 13.4814 7.74283 13.3893 7.96541C13.3049 8.16983 13.271 8.40908 13.2582 8.7565C13.2525 9.00765 13.183 9.25324 13.0563 9.47018C12.9297 9.68713 12.7499 9.86832 12.534 9.99675C12.3148 10.1196 12.068 10.1848 11.8167 10.186C11.5655 10.1873 11.318 10.1247 11.0976 10.0041C10.7896 9.84091 10.5668 9.75108 10.3459 9.72174C9.86405 9.65838 9.37673 9.78894 8.99109 10.0847C8.70326 10.3075 8.48876 10.6769 8.06159 11.4167C7.63442 12.1564 7.41992 12.5258 7.37317 12.8879C7.34167 13.1267 7.35752 13.3693 7.4198 13.6019C7.48209 13.8345 7.58959 14.0526 7.73617 14.2437C7.87184 14.4197 8.06159 14.5672 8.35584 14.7524C8.78942 15.0247 9.06809 15.4885 9.06809 16C9.06809 16.5115 8.78942 16.9753 8.35584 17.2467C8.06159 17.4327 7.87092 17.5803 7.73617 17.7563C7.58959 17.9474 7.48209 18.1655 7.4198 18.3981C7.35752 18.6307 7.34167 18.8733 7.37317 19.1121C7.42084 19.4732 7.63442 19.8436 8.06067 20.5833C8.48876 21.3231 8.70234 21.6925 8.99109 21.9152C9.18216 22.0618 9.40023 22.1693 9.63285 22.2316C9.86548 22.2939 10.1081 22.3097 10.3468 22.2782C10.5668 22.2489 10.7896 22.1591 11.0976 21.9959C11.318 21.8753 11.5655 21.8127 11.8167 21.814C12.068 21.8152 12.3148 21.8804 12.534 22.0032C12.9768 22.2599 13.2398 22.732 13.2582 23.2435C13.271 23.5918 13.304 23.8302 13.3893 24.0346C13.4814 24.2572 13.6165 24.4594 13.7868 24.6297C13.9572 24.8001 14.1594 24.9352 14.382 25.0273C14.7184 25.1667 15.1456 25.1667 15.9999 25.1667C16.8543 25.1667 17.2814 25.1667 17.6178 25.0273C17.8404 24.9352 18.0427 24.8001 18.213 24.6297C18.3834 24.4594 18.5185 24.2572 18.6106 24.0346C18.6949 23.8302 18.7288 23.5918 18.7417 23.2435C18.76 22.732 19.0231 22.259 19.4658 22.0032C19.685 21.8804 19.9318 21.8152 20.1831 21.814C20.4344 21.8127 20.6818 21.8753 20.9023 21.9959C21.2103 22.1591 21.433 22.2489 21.653 22.2782C21.8918 22.3097 22.1344 22.2939 22.367 22.2316C22.5996 22.1693 22.8177 22.0618 23.0088 21.9152C23.2975 21.6934 23.5111 21.3231 23.9383 20.5833C24.3654 19.8436 24.5799 19.4742 24.6267 19.1121C24.6582 18.8733 24.6423 18.6307 24.58 18.3981C24.5178 18.1655 24.4103 17.9474 24.2637 17.7563C24.128 17.5803 23.9383 17.4327 23.644 17.2476C23.4293 17.1171 23.2512 16.9341 23.1266 16.7158C23.002 16.4976 22.935 16.2513 22.9318 16C22.9318 15.4885 23.2104 15.0247 23.644 14.7533C23.9383 14.5672 24.1289 14.4197 24.2637 14.2437C24.4103 14.0526 24.5178 13.8345 24.58 13.6019C24.6423 13.3693 24.6582 13.1267 24.6267 12.8879C24.579 12.5267 24.3654 12.1564 23.9392 11.4167C23.5111 10.6769 23.2975 10.3075 23.0088 10.0847C22.8177 9.93816 22.5996 9.83066 22.367 9.76837C22.1344 9.70609 21.8918 9.69024 21.653 9.72174C21.433 9.75108 21.2103 9.84091 20.9013 10.0041C20.681 10.1245 20.4337 10.1871 20.1826 10.1858C19.9316 10.1845 19.6849 10.1195 19.4658 9.99675C19.2499 9.86832 19.0702 9.68713 18.9435 9.47018C18.8168 9.25324 18.7474 9.00765 18.7417 8.7565C18.7288 8.40816 18.6958 8.16983 18.6106 7.96541C18.5185 7.74283 18.3834 7.54058 18.213 7.37024C18.0427 7.1999 17.8404 7.0648 17.6178 6.97266Z" stroke="#4F6688" stroke-width="1.5"/>
</svg>
