<svg width="13" height="16" viewBox="0 0 13 16" fill="none" xmlns="http://www.w3.org/2000/svg">
<path d="M9.75 2.90909L8.59625 3.94182L7.30437 2.78545V10.9091H5.69563V2.78545L4.40375 3.94182L3.25 2.90909L6.5 0L9.75 2.90909ZM13 6.54545V14.5455C13 15.3455 12.2688 16 11.375 16H1.625C1.19402 16 0.780698 15.8468 0.475951 15.574C0.171205 15.3012 0 14.9312 0 14.5455V6.54545C0 5.73818 0.723125 5.09091 1.625 5.09091H4.0625V6.54545H1.625V14.5455H11.375V6.54545H8.9375V5.09091H11.375C11.806 5.09091 12.2193 5.24416 12.524 5.51694C12.8288 5.78972 13 6.15969 13 6.54545Z" fill="#4F6688"/>
</svg>
