
<svg xmlns="http://www.w3.org/2000/svg" width="46" height="46" viewBox="0 0 46 46" fill="none">
<rect width="46" height="46" rx="10" fill="#EFEFEF"/>
<path fill-rule="evenodd" clip-rule="evenodd" d="M23.0002 33.5C28.7991 33.5 33.5002 28.7989 33.5002 23C33.5002 17.2011 28.7991 12.5 23.0002 12.5C17.2012 12.5 12.5002 17.2011 12.5002 23C12.5002 28.7989 17.2012 33.5 23.0002 33.5ZM23.0002 34.6667C29.4437 34.6667 34.6668 29.4435 34.6668 23C34.6668 16.5565 29.4437 11.3333 23.0002 11.3333C16.5567 11.3333 11.3335 16.5565 11.3335 23C11.3335 29.4435 16.5567 34.6667 23.0002 34.6667Z" fill="#4F6688"/>
<path d="M16 29.7842C16 29.1816 16.4503 28.6723 17.05 28.6058C21.5504 28.1077 24.47 28.1526 28.9605 28.6169C29.1847 28.6405 29.3973 28.7288 29.5721 28.8711C29.747 29.0135 29.8766 29.2037 29.9452 29.4185C30.0137 29.6333 30.0182 29.8634 29.9581 30.0807C29.898 30.298 29.776 30.4932 29.6068 30.6422C24.3073 35.2617 21.2786 35.1981 16.3733 30.6469C16.1342 30.4252 16 30.1097 16 29.7842Z" fill="#4F6688"/>
<path fill-rule="evenodd" clip-rule="evenodd" d="M28.9007 29.1967C24.4458 28.7359 21.5682 28.6927 17.1139 29.1857C16.9673 29.2027 16.8321 29.2733 16.7343 29.3839C16.6364 29.4944 16.5828 29.6371 16.5837 29.7847C16.5837 29.9516 16.6531 30.1097 16.7703 30.2193C19.2017 32.4745 21.0438 33.4936 22.8446 33.5C24.6517 33.5064 26.5931 32.4955 29.2239 30.203C29.3075 30.1286 29.3677 30.0315 29.3971 29.9236C29.4265 29.8156 29.424 29.7015 29.3898 29.5949C29.3555 29.4884 29.2911 29.3941 29.2043 29.3235C29.1175 29.253 29.012 29.2085 28.9007 29.1967ZM16.9862 28.026C21.5338 27.5226 24.496 27.5681 29.0215 28.0365C29.3588 28.0717 29.6786 28.2045 29.9416 28.4187C30.2046 28.6328 30.3995 28.919 30.5024 29.2422C30.6053 29.5654 30.6117 29.9116 30.5209 30.2383C30.43 30.5651 30.2459 30.8583 29.991 31.0821C27.3222 33.4084 25.0997 34.6754 22.8411 34.6667C20.576 34.6585 18.4515 33.3699 15.9776 31.0745C15.8005 30.9095 15.6592 30.7098 15.5628 30.4878C15.4663 30.2657 15.4167 30.0262 15.417 29.7842C15.4161 29.3492 15.5758 28.9293 15.8653 28.6048C16.1549 28.2803 16.554 28.0745 16.9862 28.026Z" fill="#4F6688"/>
<path d="M27.6668 20.6667C27.6668 21.9043 27.1752 23.0913 26.3 23.9665C25.4248 24.8417 24.2378 25.3333 23.0002 25.3333C21.7625 25.3333 20.5755 24.8417 19.7003 23.9665C18.8252 23.0913 18.3335 21.9043 18.3335 20.6667C18.3335 19.429 18.8252 18.242 19.7003 17.3668C20.5755 16.4917 21.7625 16 23.0002 16C24.2378 16 25.4248 16.4917 26.3 17.3668C27.1752 18.242 27.6668 19.429 27.6668 20.6667Z" fill="#4F6688"/>
<path fill-rule="evenodd" clip-rule="evenodd" d="M23.0002 24.1667C23.9284 24.1667 24.8187 23.7979 25.475 23.1415C26.1314 22.4852 26.5002 21.5949 26.5002 20.6667C26.5002 19.7384 26.1314 18.8482 25.475 18.1918C24.8187 17.5354 23.9284 17.1667 23.0002 17.1667C22.0719 17.1667 21.1817 17.5354 20.5253 18.1918C19.8689 18.8482 19.5002 19.7384 19.5002 20.6667C19.5002 21.5949 19.8689 22.4852 20.5253 23.1415C21.1817 23.7979 22.0719 24.1667 23.0002 24.1667ZM23.0002 25.3333C24.2378 25.3333 25.4248 24.8417 26.3 23.9665C27.1752 23.0913 27.6668 21.9043 27.6668 20.6667C27.6668 19.429 27.1752 18.242 26.3 17.3668C25.4248 16.4917 24.2378 16 23.0002 16C21.7625 16 20.5755 16.4917 19.7003 17.3668C18.8252 18.242 18.3335 19.429 18.3335 20.6667C18.3335 21.9043 18.8252 23.0913 19.7003 23.9665C20.5755 24.8417 21.7625 25.3333 23.0002 25.3333Z" fill="#4F6688"/>
</svg>

