<svg width="32" height="32" viewBox="0 0 32 32" fill="none" xmlns="http://www.w3.org/2000/svg">
<rect width="32" height="32" rx="6" fill="#F7F7F7"/>
<path fill-rule="evenodd" clip-rule="evenodd" d="M16 25C20.9705 25 25 20.9705 25 16C25 11.0295 20.9705 7 16 7C11.0295 7 7 11.0295 7 16C7 20.9705 11.0295 25 16 25ZM16 26C21.523 26 26 21.523 26 16C26 10.477 21.523 6 16 6C10.477 6 6 10.477 6 16C6 21.523 10.477 26 16 26Z" fill="#4F6688"/>
<path d="M10 21.815C10 21.2985 10.386 20.862 10.9 20.805C14.7575 20.378 17.26 20.4165 21.109 20.8145C21.3012 20.8347 21.4834 20.9104 21.6332 21.0324C21.7831 21.1544 21.8942 21.3174 21.953 21.5015C22.0117 21.6857 22.0156 21.8829 21.9641 22.0692C21.9126 22.2554 21.808 22.4227 21.663 22.5505C17.1205 26.51 14.5245 26.4555 10.32 22.5545C10.115 22.3645 10 22.094 10 21.815Z" fill="#4F6688"/>
<path fill-rule="evenodd" clip-rule="evenodd" d="M21.0575 21.3115C17.239 20.9165 14.7725 20.8795 10.9545 21.302C10.8288 21.3167 10.713 21.3771 10.6291 21.4719C10.5452 21.5666 10.4993 21.689 10.5 21.8155C10.5 21.9585 10.5595 22.094 10.66 22.188C12.744 24.121 14.323 24.9945 15.8665 25C17.4155 25.0055 19.0795 24.139 21.3345 22.174C21.4061 22.1102 21.4577 22.027 21.4829 21.9345C21.5082 21.842 21.506 21.7441 21.4767 21.6528C21.4473 21.5615 21.3921 21.4807 21.3177 21.4202C21.2433 21.3597 21.1529 21.3216 21.0575 21.3115ZM10.845 20.308C14.743 19.8765 17.282 19.9155 21.161 20.317C21.4502 20.3472 21.7242 20.461 21.9497 20.6446C22.1751 20.8281 22.3422 21.0734 22.4304 21.3505C22.5185 21.6275 22.524 21.9242 22.4462 22.2043C22.3683 22.4844 22.2105 22.7357 21.992 22.9275C19.7045 24.9215 17.7995 26.0075 15.8635 26C13.922 25.993 12.101 24.8885 9.9805 22.921C9.82868 22.7796 9.70765 22.6084 9.62497 22.4181C9.5423 22.2278 9.49976 22.0225 9.5 21.815C9.49927 21.4422 9.6361 21.0823 9.88428 20.8041C10.1325 20.5259 10.4745 20.3496 10.845 20.308Z" fill="#4F6688"/>
<path d="M20 14C20 15.0609 19.5786 16.0783 18.8284 16.8284C18.0783 17.5786 17.0609 18 16 18C14.9391 18 13.9217 17.5786 13.1716 16.8284C12.4214 16.0783 12 15.0609 12 14C12 12.9391 12.4214 11.9217 13.1716 11.1716C13.9217 10.4214 14.9391 10 16 10C17.0609 10 18.0783 10.4214 18.8284 11.1716C19.5786 11.9217 20 12.9391 20 14Z" fill="#4F6688"/>
<path fill-rule="evenodd" clip-rule="evenodd" d="M16 17C16.7956 17 17.5587 16.6839 18.1213 16.1213C18.6839 15.5587 19 14.7957 19 14C19 13.2044 18.6839 12.4413 18.1213 11.8787C17.5587 11.3161 16.7956 11 16 11C15.2043 11 14.4413 11.3161 13.8787 11.8787C13.3161 12.4413 13 13.2044 13 14C13 14.7957 13.3161 15.5587 13.8787 16.1213C14.4413 16.6839 15.2043 17 16 17ZM16 18C17.0609 18 18.0783 17.5786 18.8284 16.8284C19.5786 16.0783 20 15.0609 20 14C20 12.9391 19.5786 11.9217 18.8284 11.1716C18.0783 10.4214 17.0609 10 16 10C14.9391 10 13.9217 10.4214 13.1716 11.1716C12.4214 11.9217 12 12.9391 12 14C12 15.0609 12.4214 16.0783 13.1716 16.8284C13.9217 17.5786 14.9391 18 16 18Z" fill="#4F6688"/>
</svg>
