<svg width="12" height="19" viewBox="0 0 12 19" fill="none" xmlns="http://www.w3.org/2000/svg">
<path d="M9.1258 18.6L0.700796 10.2C0.600796 10.1 0.529797 9.99167 0.487797 9.875C0.445797 9.75834 0.42513 9.63334 0.425797 9.5C0.425797 9.36667 0.446463 9.24167 0.487797 9.125C0.52913 9.00834 0.60013 8.9 0.700796 8.8L9.1258 0.375001C9.35913 0.141668 9.6508 0.0250015 10.0008 0.0250015C10.3508 0.0250015 10.6508 0.150002 10.9008 0.400002C11.1508 0.650002 11.2758 0.941668 11.2758 1.275C11.2758 1.60833 11.1508 1.9 10.9008 2.15L3.5508 9.5L10.9008 16.85C11.1341 17.0833 11.2508 17.371 11.2508 17.713C11.2508 18.055 11.1258 18.3507 10.8758 18.6C10.6258 18.85 10.3341 18.975 10.0008 18.975C9.66746 18.975 9.3758 18.85 9.1258 18.6Z" fill="#4F6688"/>
</svg>
